<svg xmlns="http://www.w3.org/2000/svg" xmlns:xlink="http://www.w3.org/1999/xlink" width="500" zoomAndPan="magnify" viewBox="0 0 375 374.999991" height="500" preserveAspectRatio="xMidYMid meet" version="1.0"><defs><g/><clipPath id="03b5f8ba0c"><path d="M 106.066406 99 L 268.816406 99 L 268.816406 275.949219 L 106.066406 275.949219 Z M 106.066406 99 " clip-rule="nonzero"/></clipPath><clipPath id="928dbf33f5"><rect x="0" width="150" y="0" height="31"/></clipPath></defs><rect x="-37.5" width="450" fill="#ffffff" y="-37.499999" height="449.999989" fill-opacity="1"/><rect x="-37.5" width="450" fill="#000000" y="-37.499999" height="449.999989" fill-opacity="1"/><g clip-path="url(#03b5f8ba0c)"><path fill="#ffffff" d="M 108.289062 99.324219 L 108.289062 101.773438 C 111.914062 102.277344 115.519531 102.976562 119.066406 103.863281 C 120.5 104.246094 121.871094 104.867188 123.113281 105.664062 C 124.519531 106.578125 125.804688 107.65625 126.941406 108.886719 C 127.488281 109.457031 127.933594 110.101562 128.261719 110.816406 C 128.691406 111.738281 129.039062 112.691406 129.277344 113.679688 C 129.882812 116.128906 130.289062 118.640625 130.496094 121.164062 C 130.734375 123.929688 130.902344 126.894531 130.976562 129.988281 C 131.066406 133.082031 131.101562 136.15625 131.101562 139.070312 L 131.101562 169.140625 L 157.875 169.140625 C 157.839844 167.683594 157.839844 166.074219 157.839844 164.34375 L 157.839844 148.644531 C 157.839844 137.90625 157.964844 128.316406 158.207031 120.1875 C 158.457031 112.046875 158.738281 106.589844 159.070312 103.992188 C 161.703125 103.546875 164.367188 103.257812 167.046875 103.128906 C 170.710938 102.890625 174.300781 102.761719 177.722656 102.761719 C 183.085938 102.761719 188.125 102.890625 192.6875 103.128906 C 197.253906 103.371094 201.449219 103.738281 205.207031 104.234375 C 208.945312 104.714844 212.140625 105.257812 214.714844 105.832031 C 216.757812 106.222656 218.75 106.84375 220.664062 107.667969 C 223.75 109.203125 226.714844 110.980469 229.53125 112.96875 C 232.726562 115.226562 235.792969 117.675781 238.710938 120.300781 C 241.804688 123.066406 244.992188 126.210938 248.1875 129.648438 C 251.382812 133.082031 254.667969 136.914062 257.964844 141.023438 L 260.421875 139.808594 L 243.734375 99.324219 Z M 131.078125 207.351562 C 131.054688 210.105469 131.027344 212.84375 130.976562 215.519531 C 130.902344 220.136719 130.8125 224.488281 130.734375 228.390625 C 130.660156 232.296875 130.609375 235.445312 130.609375 237.726562 C 130.609375 240.328125 130.535156 243.015625 130.367188 245.691406 C 130.214844 248.292969 129.921875 250.867188 129.503906 253.425781 C 129.097656 255.863281 128.644531 258.058594 128.160156 259.933594 C 127.820312 261.480469 127.148438 262.949219 126.195312 264.21875 C 125.039062 265.539062 123.734375 266.71875 122.300781 267.71875 C 120.792969 268.769531 119.183594 269.660156 117.480469 270.359375 C 115.695312 271.105469 113.855469 271.738281 111.992188 272.261719 C 110.050781 272.808594 108.074219 273.226562 106.066406 273.539062 L 106.066406 276 L 256.25 276 L 268.539062 229.128906 L 265.839844 228.40625 C 263.800781 231.890625 261.757812 235.191406 259.789062 238.183594 C 257.839844 241.175781 255.84375 243.953125 253.929688 246.441406 C 252.027344 248.925781 250.050781 251.246094 248.085938 253.339844 C 246.183594 255.367188 244.152344 257.28125 242.035156 259.070312 C 240.058594 260.746094 237.960938 262.269531 235.785156 263.648438 C 233.703125 264.941406 231.519531 266.082031 229.277344 267.046875 C 227.019531 268.011719 224.710938 268.796875 222.339844 269.421875 C 219.851562 270.066406 217.34375 270.546875 214.792969 270.851562 C 210.078125 271.5 205.484375 271.917969 201.171875 272.070312 C 196.859375 272.234375 193.273438 272.324219 190.492188 272.324219 C 187.246094 272.324219 184.066406 272.195312 181.046875 271.957031 C 178.039062 271.703125 175.109375 271.335938 172.335938 270.839844 C 169.988281 270.484375 167.703125 269.828125 165.523438 268.886719 C 164.027344 268.265625 162.722656 267.25 161.78125 265.929688 C 160.957031 264.597656 160.347656 263.140625 159.96875 261.605469 C 159.449219 259.617188 159.117188 257.574219 158.953125 255.503906 C 158.550781 250.867188 158.257812 245.867188 158.089844 240.65625 C 158.089844 239.019531 158.050781 237.015625 157.976562 234.644531 C 157.886719 232.273438 157.851562 229.761719 157.851562 227.160156 L 157.851562 207.351562 Z M 131.078125 207.351562 " fill-opacity="1" fill-rule="nonzero"/></g><g transform="matrix(1, 0, 0, 1, 111, 171)"><g clip-path="url(#928dbf33f5)"><g fill="#ffffff" fill-opacity="1"><g transform="translate(0.656694, 24.234714)"><g><path d="M 13.359375 -14.734375 L 7.984375 -14.734375 L 7.984375 0 L 5.75 0 L 5.75 -14.734375 L 0.34375 -14.734375 L 0.34375 -16.625 L 13.359375 -16.625 Z M 13.359375 -14.734375 "/></g></g></g><g fill="#ffffff" fill-opacity="1"><g transform="translate(14.358847, 24.234714)"><g><path d="M 15.59375 -16.625 L 15.59375 0 L 13.34375 0 L 13.34375 -7.5625 L 4.375 -7.5625 L 4.375 0 L 2.125 0 L 2.125 -16.625 L 4.375 -16.625 L 4.375 -9.21875 L 13.34375 -9.21875 L 13.34375 -16.625 Z M 15.59375 -16.625 "/></g></g></g><g fill="#ffffff" fill-opacity="1"><g transform="translate(32.07536, 24.234714)"><g><path d="M 12.375 -1.828125 L 12.359375 0 L 2.125 0 L 2.125 -16.625 L 12.359375 -16.625 L 12.359375 -14.796875 L 4.375 -14.796875 L 4.375 -9.265625 L 10.84375 -9.265625 L 10.84375 -7.5 L 4.375 -7.5 L 4.375 -1.828125 Z M 12.375 -1.828125 "/></g></g></g><g fill="#ffffff" fill-opacity="1"><g transform="translate(45.475876, 24.234714)"><g/></g></g><g fill="#ffffff" fill-opacity="1"><g transform="translate(51.416188, 24.234714)"><g><path d="M 12.375 -1.828125 L 12.359375 0 L 2.125 0 L 2.125 -16.625 L 12.359375 -16.625 L 12.359375 -14.796875 L 4.375 -14.796875 L 4.375 -9.265625 L 10.84375 -9.265625 L 10.84375 -7.5 L 4.375 -7.5 L 4.375 -1.828125 Z M 12.375 -1.828125 "/></g></g></g><g fill="#ffffff" fill-opacity="1"><g transform="translate(64.816704, 24.234714)"><g><path d="M 11.5625 -1.890625 L 11.5625 0 L 2.125 0 L 2.125 -16.625 L 4.359375 -16.625 L 4.359375 -1.890625 Z M 11.5625 -1.890625 "/></g></g></g><g fill="#ffffff" fill-opacity="1"><g transform="translate(76.732143, 24.234714)"><g><path d="M 12.375 -1.828125 L 12.359375 0 L 2.125 0 L 2.125 -16.625 L 12.359375 -16.625 L 12.359375 -14.796875 L 4.375 -14.796875 L 4.375 -9.265625 L 10.84375 -9.265625 L 10.84375 -7.5 L 4.375 -7.5 L 4.375 -1.828125 Z M 12.375 -1.828125 "/></g></g></g><g fill="#ffffff" fill-opacity="1"><g transform="translate(90.13266, 24.234714)"><g><path d="M 15.640625 -16.625 L 8.859375 0 L 6.84375 0 L 0.0625 -16.625 L 1.875 -16.625 C 2.070312 -16.625 2.234375 -16.570312 2.359375 -16.46875 C 2.484375 -16.375 2.578125 -16.25 2.640625 -16.09375 L 7.328125 -4.359375 C 7.421875 -4.097656 7.515625 -3.8125 7.609375 -3.5 C 7.710938 -3.195312 7.800781 -2.875 7.875 -2.53125 C 7.957031 -2.875 8.039062 -3.195312 8.125 -3.5 C 8.207031 -3.8125 8.300781 -4.097656 8.40625 -4.359375 L 13.078125 -16.09375 C 13.117188 -16.21875 13.207031 -16.335938 13.34375 -16.453125 C 13.476562 -16.566406 13.644531 -16.625 13.84375 -16.625 Z M 15.640625 -16.625 "/></g></g></g><g fill="#ffffff" fill-opacity="1"><g transform="translate(105.841993, 24.234714)"><g><path d="M 10.953125 -6.171875 L 8.34375 -12.9375 C 8.257812 -13.132812 8.175781 -13.363281 8.09375 -13.625 C 8.007812 -13.894531 7.929688 -14.179688 7.859375 -14.484375 C 7.691406 -13.859375 7.523438 -13.335938 7.359375 -12.921875 L 4.75 -6.171875 Z M 15.640625 0 L 13.90625 0 C 13.695312 0 13.53125 -0.046875 13.40625 -0.140625 C 13.28125 -0.242188 13.191406 -0.375 13.140625 -0.53125 L 11.578125 -4.546875 L 4.125 -4.546875 L 2.5625 -0.53125 C 2.519531 -0.394531 2.429688 -0.269531 2.296875 -0.15625 C 2.160156 -0.0507812 2 0 1.8125 0 L 0.0625 0 L 6.71875 -16.625 L 8.984375 -16.625 Z M 15.640625 0 "/></g></g></g><g fill="#ffffff" fill-opacity="1"><g transform="translate(121.551326, 24.234714)"><g><path d="M 13.359375 -14.734375 L 7.984375 -14.734375 L 7.984375 0 L 5.75 0 L 5.75 -14.734375 L 0.34375 -14.734375 L 0.34375 -16.625 L 13.359375 -16.625 Z M 13.359375 -14.734375 "/></g></g></g><g fill="#ffffff" fill-opacity="1"><g transform="translate(135.253478, 24.234714)"><g><path d="M 12.375 -1.828125 L 12.359375 0 L 2.125 0 L 2.125 -16.625 L 12.359375 -16.625 L 12.359375 -14.796875 L 4.375 -14.796875 L 4.375 -9.265625 L 10.84375 -9.265625 L 10.84375 -7.5 L 4.375 -7.5 L 4.375 -1.828125 Z M 12.375 -1.828125 "/></g></g></g></g></g></svg>